<svg xmlns="http://www.w3.org/2000/svg" viewBox="0 0 1050 155" width="1050" height="155" role="img" aria-label="iyzico ile Öde logo">
  <title>iyzico ile Öde</title>
  <path fill="#1E64FF" fill-rule="evenodd" d="M 426 36 L 425 37 L 424 37 L 423 38 L 422 38 L 420 40 L 420 41 L 419 42 L 419 43 L 418 44 L 418 112 L 419 113 L 419 115 L 423 119 L 424 119 L 425 120 L 433 120 L 434 119 L 435 119 L 438 116 L 438 115 L 439 114 L 439 43 L 438 42 L 438 41 L 434 37 L 432 37 L 431 36 Z
M 337 38 L 336 39 L 336 40 L 334 42 L 334 44 L 333 45 L 333 49 L 334 50 L 334 51 L 335 52 L 335 53 L 338 56 L 339 56 L 340 57 L 343 57 L 344 58 L 366 58 L 367 59 L 366 60 L 366 61 L 361 66 L 361 67 L 356 72 L 356 73 L 351 78 L 351 79 L 346 84 L 346 85 L 341 90 L 341 91 L 336 96 L 336 97 L 331 102 L 331 103 L 329 105 L 329 108 L 328 109 L 328 111 L 329 112 L 329 114 L 330 115 L 330 116 L 333 119 L 334 119 L 335 120 L 396 120 L 397 119 L 398 119 L 401 116 L 401 115 L 402 114 L 402 106 L 401 105 L 401 104 L 397 100 L 395 100 L 394 99 L 364 99 L 363 98 L 366 95 L 366 94 L 371 89 L 371 88 L 376 83 L 376 82 L 381 77 L 381 76 L 386 71 L 386 70 L 391 65 L 391 64 L 397 58 L 397 57 L 401 53 L 401 52 L 402 51 L 402 43 L 401 42 L 401 41 L 397 37 L 395 37 L 394 36 L 341 36 L 340 37 L 339 37 L 338 38 Z
M 315 37 L 313 37 L 312 36 L 307 36 L 306 37 L 305 37 L 304 38 L 303 38 L 301 40 L 301 41 L 299 43 L 299 44 L 298 45 L 298 46 L 297 47 L 297 48 L 296 49 L 296 50 L 295 51 L 295 52 L 294 53 L 294 54 L 293 55 L 293 56 L 292 57 L 292 58 L 291 59 L 291 60 L 290 61 L 290 62 L 289 63 L 289 64 L 288 65 L 288 66 L 287 67 L 287 68 L 285 70 L 285 71 L 284 72 L 284 73 L 283 74 L 283 75 L 282 76 L 282 77 L 281 78 L 281 79 L 280 80 L 280 81 L 279 82 L 279 83 L 278 84 L 278 85 L 277 86 L 276 85 L 276 84 L 275 83 L 275 82 L 274 81 L 274 80 L 273 79 L 273 78 L 272 77 L 272 76 L 271 75 L 271 74 L 270 73 L 270 72 L 269 71 L 269 70 L 268 69 L 268 68 L 267 67 L 267 66 L 266 65 L 266 64 L 265 63 L 265 62 L 264 61 L 264 60 L 263 59 L 263 58 L 262 57 L 262 56 L 260 54 L 260 53 L 259 52 L 259 51 L 258 50 L 258 49 L 257 48 L 257 47 L 256 46 L 256 45 L 255 44 L 255 43 L 254 42 L 254 41 L 250 37 L 248 37 L 247 36 L 242 36 L 241 37 L 240 37 L 239 38 L 238 38 L 235 41 L 235 43 L 234 44 L 234 50 L 235 51 L 235 52 L 236 53 L 236 54 L 237 55 L 237 56 L 238 57 L 238 58 L 239 59 L 239 60 L 240 61 L 240 62 L 241 63 L 241 64 L 242 65 L 242 66 L 243 67 L 243 68 L 244 69 L 244 70 L 245 71 L 245 72 L 247 74 L 247 75 L 248 76 L 248 77 L 249 78 L 249 79 L 250 80 L 250 81 L 251 82 L 251 83 L 252 84 L 252 85 L 253 86 L 253 87 L 254 88 L 254 89 L 255 90 L 255 91 L 256 92 L 256 93 L 257 94 L 257 95 L 258 96 L 258 97 L 259 98 L 259 99 L 260 100 L 260 101 L 261 102 L 261 103 L 263 105 L 263 106 L 264 107 L 264 108 L 265 109 L 265 110 L 264 111 L 264 112 L 263 113 L 263 114 L 262 115 L 262 116 L 261 117 L 261 118 L 260 119 L 260 120 L 259 121 L 259 122 L 258 123 L 258 124 L 257 125 L 257 126 L 256 127 L 256 128 L 254 130 L 254 131 L 253 132 L 253 133 L 252 134 L 252 135 L 251 136 L 251 138 L 250 139 L 250 144 L 251 145 L 251 147 L 255 151 L 256 151 L 257 152 L 264 152 L 265 151 L 266 151 L 268 149 L 269 149 L 269 148 L 271 146 L 271 145 L 272 144 L 272 143 L 273 142 L 273 141 L 274 140 L 274 139 L 275 138 L 275 137 L 276 136 L 276 135 L 277 134 L 277 133 L 278 132 L 278 131 L 279 130 L 279 129 L 280 128 L 280 127 L 281 126 L 281 125 L 282 124 L 282 123 L 283 122 L 283 121 L 284 120 L 284 119 L 286 117 L 286 116 L 287 115 L 287 114 L 288 113 L 288 112 L 289 111 L 289 110 L 290 109 L 290 108 L 291 107 L 291 106 L 292 105 L 292 104 L 293 103 L 293 102 L 294 101 L 294 100 L 295 99 L 295 98 L 296 97 L 296 96 L 297 95 L 297 94 L 298 93 L 298 92 L 299 91 L 299 90 L 300 89 L 300 88 L 302 86 L 302 85 L 303 84 L 303 83 L 304 82 L 304 81 L 305 80 L 305 79 L 306 78 L 306 77 L 307 76 L 307 75 L 308 74 L 308 73 L 309 72 L 309 71 L 310 70 L 310 69 L 311 68 L 311 67 L 312 66 L 312 65 L 313 64 L 313 63 L 314 62 L 314 61 L 315 60 L 315 59 L 317 57 L 317 56 L 318 55 L 318 54 L 319 53 L 319 51 L 320 50 L 320 43 L 319 42 L 319 41 Z
M 208 36 L 207 37 L 205 37 L 201 41 L 201 42 L 200 43 L 200 113 L 201 114 L 201 115 L 202 116 L 202 117 L 203 118 L 204 118 L 206 120 L 214 120 L 215 119 L 216 119 L 217 118 L 218 118 L 218 117 L 220 115 L 220 114 L 221 113 L 221 44 L 220 43 L 220 41 L 217 38 L 216 38 L 215 37 L 214 37 L 213 36 Z
M 576 35 L 575 36 L 572 36 L 571 37 L 569 37 L 568 38 L 566 38 L 565 39 L 564 39 L 563 40 L 562 40 L 560 42 L 559 42 L 556 45 L 555 45 L 550 50 L 550 51 L 548 53 L 548 54 L 546 56 L 546 57 L 545 58 L 545 59 L 544 60 L 544 61 L 543 62 L 543 64 L 542 65 L 542 68 L 541 69 L 541 75 L 540 76 L 540 81 L 541 82 L 541 88 L 542 89 L 542 91 L 543 92 L 543 94 L 544 95 L 544 96 L 545 97 L 545 98 L 546 99 L 546 100 L 547 101 L 547 102 L 549 104 L 549 105 L 557 113 L 558 113 L 560 115 L 561 115 L 563 117 L 565 117 L 566 118 L 567 118 L 568 119 L 570 119 L 571 120 L 573 120 L 574 121 L 579 121 L 580 122 L 587 122 L 588 121 L 593 121 L 594 120 L 597 120 L 598 119 L 600 119 L 601 118 L 602 118 L 603 117 L 604 117 L 605 116 L 606 116 L 608 114 L 609 114 L 613 110 L 614 110 L 615 109 L 615 108 L 619 104 L 619 103 L 621 101 L 621 100 L 622 99 L 622 98 L 623 97 L 623 96 L 624 95 L 624 94 L 625 93 L 625 90 L 626 89 L 626 86 L 627 85 L 627 72 L 626 71 L 626 67 L 625 66 L 625 64 L 624 63 L 624 61 L 623 60 L 623 59 L 622 58 L 622 57 L 621 56 L 621 55 L 619 53 L 619 52 L 610 43 L 609 43 L 607 41 L 606 41 L 605 40 L 604 40 L 603 39 L 602 39 L 601 38 L 600 38 L 599 37 L 597 37 L 596 36 L 593 36 L 592 35 Z
M 580 56 L 587 56 L 588 57 L 591 57 L 592 58 L 593 58 L 594 59 L 595 59 L 602 66 L 602 67 L 604 69 L 604 71 L 605 72 L 605 75 L 606 76 L 606 80 L 605 81 L 605 84 L 604 85 L 604 87 L 603 88 L 603 89 L 601 91 L 601 92 L 598 95 L 597 95 L 595 97 L 594 97 L 592 99 L 589 99 L 588 100 L 579 100 L 578 99 L 576 99 L 575 98 L 574 98 L 573 97 L 572 97 L 565 90 L 565 89 L 564 88 L 564 87 L 563 86 L 563 84 L 562 83 L 562 73 L 563 72 L 563 70 L 564 69 L 564 68 L 566 66 L 566 65 L 571 60 L 572 60 L 573 59 L 574 59 L 575 58 L 576 58 L 577 57 L 579 57 Z
M 489 35 L 488 36 L 485 36 L 484 37 L 482 37 L 481 38 L 479 38 L 478 39 L 477 39 L 475 41 L 474 41 L 473 42 L 472 42 L 467 47 L 466 47 L 466 48 L 461 53 L 461 54 L 460 55 L 460 56 L 458 58 L 458 60 L 457 61 L 457 62 L 456 63 L 456 65 L 455 66 L 455 69 L 454 70 L 454 87 L 455 88 L 455 91 L 456 92 L 456 93 L 457 94 L 457 96 L 458 97 L 458 98 L 459 99 L 459 100 L 461 102 L 461 103 L 463 105 L 463 106 L 469 112 L 470 112 L 473 115 L 474 115 L 475 116 L 476 116 L 477 117 L 478 117 L 479 118 L 480 118 L 481 119 L 483 119 L 484 120 L 486 120 L 487 121 L 492 121 L 493 122 L 501 122 L 502 121 L 507 121 L 508 120 L 510 120 L 511 119 L 513 119 L 514 118 L 515 118 L 516 117 L 517 117 L 518 116 L 519 116 L 520 115 L 521 115 L 524 112 L 525 112 L 529 108 L 529 107 L 530 106 L 530 104 L 531 103 L 531 99 L 530 98 L 530 97 L 529 96 L 529 95 L 526 92 L 525 92 L 524 91 L 516 91 L 515 92 L 514 92 L 510 96 L 509 96 L 507 98 L 506 98 L 505 99 L 503 99 L 502 100 L 492 100 L 491 99 L 489 99 L 488 98 L 487 98 L 485 96 L 484 96 L 479 91 L 479 90 L 478 89 L 478 88 L 477 87 L 477 86 L 476 85 L 476 83 L 475 82 L 475 74 L 476 73 L 476 71 L 477 70 L 477 69 L 478 68 L 478 67 L 480 65 L 480 64 L 483 61 L 484 61 L 486 59 L 487 59 L 488 58 L 489 58 L 490 57 L 492 57 L 493 56 L 501 56 L 502 57 L 504 57 L 505 58 L 506 58 L 507 59 L 508 59 L 510 61 L 511 61 L 514 64 L 515 64 L 516 65 L 518 65 L 519 66 L 522 66 L 523 65 L 525 65 L 527 63 L 528 63 L 528 62 L 530 60 L 530 58 L 531 57 L 531 53 L 530 52 L 530 50 L 528 48 L 528 47 L 527 47 L 522 42 L 521 42 L 520 41 L 519 41 L 517 39 L 516 39 L 515 38 L 513 38 L 512 37 L 510 37 L 509 36 L 506 36 L 505 35 Z
M 5 24 L 5 25 L 4 26 L 5 27 L 5 32 L 4 33 L 5 34 L 5 35 L 4 36 L 5 37 L 5 41 L 4 42 L 5 43 L 5 48 L 4 49 L 5 50 L 5 51 L 4 52 L 5 53 L 5 57 L 4 58 L 5 59 L 5 64 L 4 65 L 5 66 L 5 67 L 4 68 L 5 69 L 5 73 L 4 74 L 5 75 L 5 80 L 4 81 L 5 82 L 5 83 L 4 84 L 5 85 L 5 89 L 4 90 L 5 91 L 5 96 L 4 97 L 5 98 L 5 99 L 4 100 L 5 101 L 5 105 L 4 106 L 5 107 L 5 112 L 4 113 L 5 114 L 5 115 L 4 116 L 5 117 L 5 121 L 4 122 L 5 123 L 5 128 L 4 129 L 5 129 L 6 130 L 6 131 L 7 131 L 8 132 L 10 132 L 11 133 L 124 133 L 125 132 L 126 132 L 127 131 L 128 131 L 132 127 L 132 126 L 133 125 L 133 124 L 134 123 L 134 122 L 135 121 L 135 120 L 136 119 L 136 118 L 137 117 L 137 116 L 138 115 L 138 114 L 139 113 L 139 112 L 140 111 L 140 110 L 142 108 L 142 107 L 143 106 L 143 105 L 144 104 L 144 103 L 145 102 L 145 101 L 146 100 L 146 99 L 147 98 L 147 97 L 148 96 L 148 95 L 149 94 L 149 93 L 150 92 L 150 91 L 151 90 L 151 89 L 152 88 L 152 87 L 153 86 L 153 85 L 154 84 L 154 83 L 155 82 L 155 79 L 156 78 L 156 76 L 155 75 L 155 72 L 154 71 L 154 70 L 153 69 L 153 68 L 152 67 L 152 66 L 151 65 L 151 64 L 150 63 L 150 62 L 149 61 L 149 60 L 148 59 L 148 58 L 147 57 L 147 56 L 146 55 L 146 54 L 145 53 L 145 52 L 144 51 L 144 50 L 143 49 L 143 48 L 142 47 L 142 46 L 140 44 L 140 43 L 139 42 L 139 41 L 138 40 L 138 39 L 137 38 L 137 37 L 136 36 L 136 35 L 135 34 L 135 33 L 134 32 L 134 31 L 133 30 L 133 29 L 132 28 L 132 27 L 128 23 L 127 23 L 126 22 L 125 22 L 124 21 L 11 21 L 10 22 L 8 22 L 7 23 L 6 23 Z
M 425 2 L 424 3 L 423 3 L 421 5 L 420 5 L 420 6 L 418 8 L 418 10 L 417 11 L 417 17 L 418 18 L 418 19 L 419 20 L 419 21 L 422 24 L 423 24 L 424 25 L 433 25 L 434 24 L 435 24 L 439 20 L 439 19 L 440 18 L 440 15 L 441 14 L 441 13 L 440 12 L 440 9 L 439 8 L 439 7 L 435 3 L 433 3 L 432 2 Z
M 207 2 L 206 3 L 205 3 L 204 4 L 203 4 L 201 6 L 201 7 L 200 8 L 200 9 L 199 10 L 199 18 L 200 19 L 200 20 L 204 24 L 205 24 L 206 25 L 215 25 L 216 24 L 217 24 L 220 21 L 220 20 L 221 19 L 221 18 L 222 17 L 222 10 L 221 9 L 221 8 L 220 7 L 220 6 L 218 4 L 217 4 L 216 3 L 215 3 L 214 2 Z"/>
  <path fill="#495057" fill-rule="evenodd" d="M 1005 53 L 1004 54 L 1003 54 L 1002 55 L 1001 55 L 1000 56 L 999 56 L 998 57 L 997 57 L 988 66 L 988 67 L 987 68 L 987 69 L 986 70 L 986 71 L 985 72 L 985 74 L 984 75 L 984 79 L 983 80 L 983 90 L 984 91 L 984 95 L 985 96 L 985 98 L 986 99 L 986 101 L 987 102 L 987 103 L 989 105 L 989 106 L 995 112 L 996 112 L 998 114 L 999 114 L 1000 115 L 1001 115 L 1002 116 L 1004 116 L 1005 117 L 1008 117 L 1009 118 L 1024 118 L 1025 117 L 1028 117 L 1029 116 L 1030 116 L 1031 115 L 1033 115 L 1035 113 L 1036 113 L 1038 111 L 1038 110 L 1039 109 L 1039 104 L 1037 102 L 1033 102 L 1032 103 L 1031 103 L 1030 104 L 1029 104 L 1028 105 L 1027 105 L 1026 106 L 1025 106 L 1024 107 L 1019 107 L 1018 108 L 1017 108 L 1016 107 L 1011 107 L 1010 106 L 1008 106 L 1007 105 L 1006 105 L 999 98 L 999 97 L 998 96 L 998 94 L 997 93 L 997 91 L 998 90 L 1042 90 L 1043 89 L 1044 89 L 1046 87 L 1046 86 L 1047 85 L 1047 79 L 1046 78 L 1046 75 L 1045 74 L 1045 72 L 1044 71 L 1044 69 L 1043 68 L 1043 67 L 1041 65 L 1041 64 L 1035 58 L 1034 58 L 1032 56 L 1031 56 L 1030 55 L 1029 55 L 1028 54 L 1026 54 L 1025 53 L 1023 53 L 1022 52 L 1009 52 L 1008 53 Z
M 997 77 L 998 76 L 998 74 L 1000 72 L 1000 71 L 1005 66 L 1006 66 L 1007 65 L 1008 65 L 1009 64 L 1012 64 L 1013 63 L 1018 63 L 1019 64 L 1022 64 L 1023 65 L 1024 65 L 1026 67 L 1027 67 L 1030 70 L 1030 71 L 1032 73 L 1032 74 L 1033 75 L 1033 78 L 1034 79 L 1033 80 L 998 80 L 997 79 Z
M 741 52 L 740 53 L 738 53 L 737 54 L 735 54 L 734 55 L 733 55 L 731 57 L 730 57 L 728 59 L 727 59 L 724 62 L 724 63 L 721 66 L 721 67 L 720 68 L 720 69 L 719 70 L 719 71 L 718 72 L 718 74 L 717 75 L 717 79 L 716 80 L 716 91 L 717 92 L 717 95 L 718 96 L 718 98 L 719 99 L 719 101 L 720 102 L 720 103 L 722 105 L 722 106 L 728 112 L 729 112 L 731 114 L 732 114 L 733 115 L 734 115 L 735 116 L 737 116 L 738 117 L 740 117 L 741 118 L 757 118 L 758 117 L 760 117 L 761 116 L 763 116 L 764 115 L 765 115 L 767 113 L 768 113 L 772 109 L 772 105 L 770 103 L 767 103 L 766 104 L 765 104 L 764 105 L 763 105 L 761 107 L 760 107 L 759 108 L 758 108 L 757 109 L 754 109 L 753 110 L 746 110 L 745 109 L 742 109 L 741 108 L 740 108 L 739 107 L 738 107 L 737 106 L 736 106 L 731 101 L 731 100 L 729 98 L 729 97 L 728 96 L 728 94 L 727 93 L 727 90 L 728 89 L 776 89 L 777 88 L 778 88 L 778 87 L 779 86 L 779 76 L 778 75 L 778 73 L 777 72 L 777 70 L 776 69 L 776 68 L 774 66 L 774 65 L 766 57 L 765 57 L 764 56 L 763 56 L 762 55 L 761 55 L 760 54 L 759 54 L 758 53 L 755 53 L 754 52 Z
M 727 77 L 728 76 L 728 75 L 729 74 L 729 72 L 731 70 L 731 69 L 735 65 L 736 65 L 738 63 L 739 63 L 740 62 L 742 62 L 743 61 L 753 61 L 754 62 L 756 62 L 757 63 L 758 63 L 760 65 L 761 65 L 765 69 L 765 70 L 767 72 L 767 74 L 768 75 L 768 76 L 769 77 L 769 80 L 768 81 L 728 81 L 727 80 Z
M 677 52 L 674 52 L 673 53 L 672 53 L 671 54 L 671 55 L 670 56 L 670 115 L 673 118 L 674 118 L 675 119 L 676 118 L 678 118 L 680 116 L 680 55 L 679 54 L 679 53 L 678 53 Z
M 849 29 L 848 30 L 845 30 L 844 31 L 842 31 L 841 32 L 839 32 L 838 33 L 837 33 L 836 34 L 835 34 L 833 36 L 832 36 L 830 38 L 829 38 L 822 45 L 822 46 L 819 49 L 819 50 L 818 51 L 818 52 L 817 53 L 817 54 L 816 55 L 816 56 L 815 57 L 815 59 L 814 60 L 814 63 L 813 64 L 813 70 L 812 71 L 812 77 L 813 78 L 813 84 L 814 85 L 814 88 L 815 89 L 815 90 L 816 91 L 816 93 L 817 94 L 817 95 L 818 96 L 818 97 L 820 99 L 820 100 L 824 104 L 824 105 L 826 107 L 827 107 L 831 111 L 832 111 L 834 113 L 835 113 L 836 114 L 837 114 L 838 115 L 839 115 L 840 116 L 842 116 L 843 117 L 846 117 L 847 118 L 851 118 L 852 119 L 859 119 L 860 118 L 865 118 L 866 117 L 868 117 L 869 116 L 871 116 L 872 115 L 873 115 L 874 114 L 875 114 L 876 113 L 877 113 L 878 112 L 879 112 L 881 110 L 882 110 L 890 102 L 890 101 L 892 99 L 892 98 L 894 96 L 894 95 L 895 94 L 895 93 L 896 92 L 896 90 L 897 89 L 897 87 L 898 86 L 898 82 L 899 81 L 899 66 L 898 65 L 898 62 L 897 61 L 897 58 L 896 57 L 896 56 L 895 55 L 895 54 L 894 53 L 894 52 L 893 51 L 893 50 L 891 48 L 891 47 L 888 44 L 888 43 L 885 40 L 884 40 L 881 37 L 880 37 L 878 35 L 877 35 L 876 34 L 875 34 L 874 33 L 873 33 L 872 32 L 871 32 L 870 31 L 868 31 L 867 30 L 863 30 L 862 29 Z
M 850 42 L 862 42 L 863 43 L 865 43 L 866 44 L 867 44 L 868 45 L 869 45 L 870 46 L 871 46 L 880 55 L 880 56 L 881 57 L 881 58 L 882 59 L 882 60 L 883 61 L 883 62 L 884 63 L 884 66 L 885 67 L 885 80 L 884 81 L 884 84 L 883 85 L 883 87 L 882 88 L 882 89 L 881 90 L 881 91 L 878 94 L 878 95 L 873 100 L 872 100 L 870 102 L 869 102 L 868 103 L 867 103 L 866 104 L 864 104 L 863 105 L 860 105 L 859 106 L 853 106 L 852 105 L 848 105 L 847 104 L 845 104 L 844 103 L 843 103 L 841 101 L 840 101 L 832 93 L 832 92 L 830 90 L 830 89 L 829 88 L 829 86 L 828 85 L 828 83 L 827 82 L 827 77 L 826 76 L 826 72 L 827 71 L 827 65 L 828 64 L 828 62 L 829 61 L 829 60 L 830 59 L 830 58 L 831 57 L 831 56 L 834 53 L 834 52 L 838 48 L 839 48 L 842 45 L 843 45 L 844 44 L 846 44 L 847 43 L 849 43 Z
M 967 28 L 963 28 L 962 29 L 961 29 L 960 30 L 960 31 L 959 32 L 959 58 L 958 59 L 958 60 L 957 61 L 956 60 L 956 59 L 954 57 L 953 57 L 951 55 L 950 55 L 949 54 L 948 54 L 947 53 L 945 53 L 944 52 L 932 52 L 931 53 L 928 53 L 927 54 L 926 54 L 925 55 L 924 55 L 923 56 L 922 56 L 920 58 L 919 58 L 915 62 L 915 63 L 912 66 L 912 67 L 911 68 L 911 69 L 910 70 L 910 72 L 909 73 L 909 75 L 908 76 L 908 84 L 907 85 L 907 86 L 908 87 L 908 94 L 909 95 L 909 98 L 910 99 L 910 100 L 911 101 L 911 102 L 912 103 L 912 104 L 913 105 L 913 106 L 920 113 L 921 113 L 923 115 L 924 115 L 925 116 L 926 116 L 927 117 L 929 117 L 930 118 L 934 118 L 935 119 L 940 119 L 941 118 L 945 118 L 946 117 L 948 117 L 949 116 L 950 116 L 952 114 L 953 114 L 956 111 L 956 110 L 957 109 L 958 110 L 958 112 L 959 113 L 959 115 L 962 118 L 964 118 L 965 119 L 966 118 L 968 118 L 969 117 L 970 117 L 970 116 L 971 115 L 971 114 L 972 113 L 972 33 L 971 32 L 971 31 L 969 29 L 968 29 Z
M 937 63 L 943 63 L 944 64 L 946 64 L 947 65 L 948 65 L 949 66 L 950 66 L 956 72 L 956 73 L 957 74 L 957 75 L 958 76 L 958 79 L 959 80 L 959 90 L 958 91 L 958 94 L 957 95 L 957 96 L 956 97 L 956 98 L 949 105 L 948 105 L 947 106 L 945 106 L 944 107 L 936 107 L 935 106 L 933 106 L 932 105 L 931 105 L 929 103 L 928 103 L 926 101 L 926 100 L 924 98 L 924 97 L 923 96 L 923 95 L 922 94 L 922 92 L 921 91 L 921 79 L 922 78 L 922 76 L 923 75 L 923 74 L 924 73 L 924 72 L 930 66 L 931 66 L 932 65 L 933 65 L 934 64 L 936 64 Z
M 698 28 L 697 29 L 696 29 L 695 30 L 695 32 L 694 33 L 694 113 L 695 114 L 695 116 L 697 118 L 702 118 L 704 116 L 704 115 L 705 114 L 705 32 L 704 31 L 704 30 L 703 29 L 702 29 L 701 28 Z
M 673 27 L 670 30 L 670 34 L 673 37 L 678 37 L 680 35 L 680 33 L 681 32 L 680 31 L 680 29 L 678 27 Z
M 869 6 L 868 7 L 867 7 L 865 9 L 865 10 L 864 11 L 864 15 L 865 16 L 865 17 L 868 20 L 874 20 L 875 19 L 876 19 L 877 18 L 877 17 L 878 16 L 878 10 L 874 6 Z
M 838 6 L 837 7 L 836 7 L 834 9 L 834 10 L 833 11 L 833 15 L 834 16 L 834 17 L 836 19 L 837 19 L 838 20 L 843 20 L 844 19 L 845 19 L 847 17 L 847 15 L 848 14 L 848 12 L 847 11 L 847 10 L 846 9 L 846 8 L 845 7 L 844 7 L 843 6 Z"/>
</svg>
